<svg width="576" height="512" viewBox="0 0 576 512" fill="none" xmlns="http://www.w3.org/2000/svg">
    <g clip-path="url(#clip0_39_6)">
        <path d="M288 0C218.4 0 162 56.4 162 126C162 182.3 244.4 284.8 275.9 322C282.3 329.5 293.7 329.5 300.1 322C331.7 284.8 414 182.3 414 126C414 56.4 357.6 0 288 0ZM288 168C264.8 168 246 149.2 246 126C246 102.8 264.8 84 288 84C311.2 84 330 102.8 330 126C330 149.2 311.2 168 288 168ZM20.1 216C14.1666 218.377 9.08103 222.476 5.49858 227.77C1.91614 233.063 0.00100875 239.308 0 245.7L0 496C0 507.3 11.4 515.1 21.9 510.9L160 448V214.9C151.2 198.9 143.9 183.4 138.7 168.5L20.1 216ZM288 359.7C273.9 359.7 260.6 353.5 251.5 342.7C231.8 319.5 210.9 293.1 192 266V448L384 512V266C365.1 293.1 344.2 319.5 324.5 342.7C315.4 353.5 302.1 359.7 288 359.7ZM554.1 161.2L416 224V512L555.9 456C561.833 453.623 566.919 449.524 570.501 444.23C574.084 438.937 575.999 432.692 576 426.3V176C576 164.7 564.6 156.9 554.1 161.1V161.2Z" fill="white"/>
    </g>
    <defs>
        <clipPath id="clip0_39_6">
            <rect width="576" height="512" fill="white"/>
        </clipPath>
    </defs>
</svg>
