<svg width="895" height="10" viewBox="0 0 895 10" fill="none" xmlns="http://www.w3.org/2000/svg">
<path opacity="0.5" d="M893.811 0.0180949C894.353 -0.0864934 894.877 0.268335 894.982 0.810626C895.087 1.35292 894.732 1.87732 894.189 1.98191L893.811 0.0180949ZM837.077 7.92747L836.879 8.90766L837.077 7.92747ZM857.611 8.01821L857.8 9.00012L857.611 8.01821ZM792.719 2.8581L792.537 1.8747L792.719 2.8581ZM812.83 3.02842L813.028 2.04823L812.83 3.02842ZM741.904 6.45905L741.623 7.4188L741.904 6.45905ZM710.849 3.28735L711.031 4.27076L710.849 3.28735ZM735.349 4.54095L735.63 3.5812L735.349 4.54095ZM661.902 6.05256L662.202 5.09857L661.902 6.05256ZM687.409 7.61159L687.227 6.62818L687.409 7.61159ZM631.66 4.33933L631.431 3.366L631.66 4.33933ZM659.712 5.364L660.011 4.41001L659.712 5.364ZM595.169 6.88579L594.927 7.85603L595.169 6.88579ZM620.163 7.04944L620.393 8.02277L620.163 7.04944ZM559.07 3.95056L558.84 2.97723L559.07 3.95056ZM584.064 4.11421L584.306 3.14397L584.064 4.11421ZM520.929 6.88579L520.687 7.85603L520.929 6.88579ZM545.923 7.04944L546.153 8.02277L545.923 7.04944ZM508.603 3.80932L508.845 2.83908L508.603 3.80932ZM437.414 6.42788L437.133 7.38764L437.414 6.42788ZM405.225 4.2284L404.995 3.25529L405.225 4.2284ZM368.801 7.23754L369.025 6.26287L368.801 7.23754ZM354.977 4.06573L354.753 5.0404L354.977 4.06573ZM296.566 6.54465L296.323 7.51483L296.566 6.54465ZM324.093 6.05131L323.816 5.09044L324.093 6.05131ZM261.055 4.60814L260.793 3.64293L261.055 4.60814ZM287.76 4.34465L287.518 5.31482L287.76 4.34465ZM228.066 6.90259L227.836 7.8757L227.836 7.8757L228.066 6.90259ZM254.132 6.48357L253.871 5.51836L254.132 6.48357ZM189.769 4.85113L189.492 3.89026L189.769 4.85113ZM122.116 4.39084L122.369 5.35831L122.116 4.39084ZM53.2832 5.03004L53.557 5.99183L53.2832 5.03004ZM1 1L1.25023 0.0318147L22.1406 5.43107L21.8903 6.39925L21.6401 7.36744L0.749766 1.96819L1 1ZM49.6619 6.06078L49.3881 5.09898L53.0095 4.06824L53.2832 5.03004L53.557 5.99183L49.9356 7.02258L49.6619 6.06078ZM81.6511 4.84941L81.9126 3.8842L87.3078 5.34583L87.0463 6.31104L86.7848 7.27625L81.3896 5.81461L81.6511 4.84941ZM114.312 6.43135L114.059 5.46387L121.863 3.42336L122.116 4.39084L122.369 5.35831L114.565 7.39883L114.312 6.43135ZM148.106 4.18257L148.344 3.21116L158.439 5.67859L158.202 6.65L157.964 7.6214L147.869 5.15398L148.106 4.18257ZM185.466 6.09157L185.189 5.1307L189.492 3.89026L189.769 4.85113L190.046 5.812L185.743 7.05244L185.466 6.09157ZM216.657 4.20227L216.888 3.22916L228.296 5.92947L228.066 6.90259L227.836 7.8757L216.427 5.17538L216.657 4.20227ZM254.132 6.48357L253.871 5.51836L260.793 3.64293L261.055 4.60814L261.316 5.57335L254.394 7.44878L254.132 6.48357ZM287.76 4.34465L288.003 3.37447L296.808 5.57447L296.566 6.54465L296.323 7.51483L287.518 5.31482L287.76 4.34465ZM324.093 6.05131L323.816 5.09044L328.167 3.83639L328.444 4.79726L328.721 5.75813L324.37 7.01218L324.093 6.05131ZM354.977 4.06573L355.201 3.09105L369.025 6.26287L368.801 7.23754L368.577 8.21222L354.753 5.0404L354.977 4.06573ZM392.861 7.15487L392.631 6.18175L404.995 3.25529L405.225 4.2284L405.455 5.20152L393.091 8.12798L392.861 7.15487ZM432.317 4.93646L432.598 3.97671L437.695 5.46813L437.414 6.42788L437.133 7.38764L432.036 5.89622L432.317 4.93646ZM462.12 7.64298L461.935 6.6603L485.761 2.16714L485.947 3.14982L486.132 4.1325L462.305 8.62566L462.12 7.64298ZM508.603 3.80932L508.845 2.83908L521.171 5.91555L520.929 6.88579L520.687 7.85603L508.36 4.77955L508.603 3.80932ZM545.923 7.04944L545.694 6.07612L558.84 2.97723L559.07 3.95056L559.299 4.92388L546.153 8.02277L545.923 7.04944ZM584.064 4.11421L584.306 3.14397L595.411 5.91555L595.169 6.88579L594.927 7.85603L583.822 5.08444L584.064 4.11421ZM620.163 7.04944L619.934 6.07612L631.431 3.366L631.66 4.33933L631.89 5.31265L620.393 8.02277L620.163 7.04944ZM659.712 5.364L660.011 4.41001L662.202 5.09857L661.902 6.05256L661.603 7.00655L659.412 6.31799L659.712 5.364ZM687.409 7.61159L687.227 6.62818L710.668 2.30394L710.849 3.28735L711.031 4.27076L687.59 8.595L687.409 7.61159ZM735.349 4.54095L735.63 3.5812L742.185 5.4993L741.904 6.45905L741.623 7.4188L735.068 5.50071L735.349 4.54095ZM766.404 7.71265L766.222 6.72924L792.537 1.8747L792.719 2.8581L792.9 3.84151L766.585 8.69606L766.404 7.71265ZM812.83 3.02842L813.028 2.04823L837.275 6.94727L837.077 7.92747L836.879 8.90766L812.632 4.00861L812.83 3.02842ZM857.611 8.01821L857.421 7.03631L893.811 0.0180949L894 1L894.189 1.98191L857.8 9.00012L857.611 8.01821ZM837.077 7.92747L837.275 6.94727C843.921 8.28993 850.764 8.32018 857.421 7.03631L857.611 8.01821L857.8 9.00012C850.887 10.3334 843.78 10.302 836.879 8.90766L837.077 7.92747ZM792.719 2.8581L792.537 1.8747C799.316 0.624157 806.272 0.683061 813.028 2.04823L812.83 3.02842L812.632 4.00861C806.126 2.69401 799.428 2.63729 792.9 3.84151L792.719 2.8581ZM741.904 6.45905L742.185 5.4993C749.991 7.78352 758.224 8.20478 766.222 6.72924L766.404 7.71265L766.585 8.69606C758.279 10.2283 749.729 9.79088 741.623 7.4188L741.904 6.45905ZM710.849 3.28735L710.668 2.30394C718.974 0.771652 727.524 1.20912 735.63 3.5812L735.349 4.54095L735.068 5.50071C727.262 3.21648 719.029 2.79522 711.031 4.27076L710.849 3.28735ZM661.902 6.05256L662.202 5.09857C670.294 7.64189 678.886 8.16703 687.227 6.62818L687.409 7.61159L687.59 8.595C678.928 10.193 670.006 9.6477 661.603 7.00655L661.902 6.05256ZM631.66 4.33933L631.431 3.366C640.878 1.139 650.752 1.49966 660.011 4.41001L659.712 5.364L659.412 6.31799C650.495 3.51543 640.987 3.16813 631.89 5.31265L631.66 4.33933ZM595.169 6.88579L595.411 5.91555C603.455 7.92339 611.864 7.97844 619.934 6.07612L620.163 7.04944L620.393 8.02277C612.012 9.99826 603.281 9.94109 594.927 7.85603L595.169 6.88579ZM559.07 3.95056L558.84 2.97723C567.221 1.00174 575.952 1.05891 584.306 3.14397L584.064 4.11421L583.822 5.08444C575.777 3.07661 567.369 3.02156 559.299 4.92388L559.07 3.95056ZM520.929 6.88579L521.171 5.91555C529.216 7.92339 537.624 7.97844 545.694 6.07612L545.923 7.04944L546.153 8.02277C537.772 9.99826 529.041 9.94109 520.687 7.85603L520.929 6.88579ZM485.947 3.14982L485.761 2.16714C493.414 0.723966 501.289 0.95319 508.845 2.83908L508.603 3.80932L508.36 4.77955C501.084 2.96351 493.501 2.74278 486.132 4.1325L485.947 3.14982ZM437.414 6.42788L437.695 5.46813C445.568 7.7719 453.874 8.18042 461.935 6.6603L462.12 7.64298L462.305 8.62566C453.934 10.2042 445.309 9.78002 437.133 7.38764L437.414 6.42788ZM405.225 4.2284L404.995 3.25529C414.103 1.09947 423.615 1.34807 432.598 3.97671L432.317 4.93646L432.036 5.89622C423.386 3.36493 414.226 3.12554 405.455 5.20152L405.225 4.2284ZM368.801 7.23754L369.025 6.26287C376.795 8.04587 384.872 8.01811 392.631 6.18175L392.861 7.15487L393.091 8.12798C385.034 10.035 376.647 10.0638 368.577 8.21222L368.801 7.23754ZM328.444 4.79726L328.167 3.83639C336.969 1.29887 346.272 1.04238 355.201 3.09105L354.977 4.06573L354.753 5.0404C346.155 3.06761 337.197 3.3146 328.721 5.75813L328.444 4.79726ZM296.566 6.54465L296.808 5.57447C305.696 7.79511 315.013 7.62813 323.816 5.09044L324.093 6.05131L324.37 7.01218C315.229 9.64748 305.553 9.82088 296.323 7.51483L296.566 6.54465ZM261.055 4.60814L260.793 3.64293C269.691 1.2323 279.059 1.13988 288.003 3.37447L287.76 4.34465L287.518 5.31482C278.905 3.163 269.885 3.252 261.316 5.57335L261.055 4.60814ZM228.066 6.90259L228.296 5.92947C236.722 7.92386 245.513 7.78254 253.871 5.51836L254.132 6.48357L254.394 7.44878C245.714 9.80004 236.586 9.94679 227.836 7.8757L228.066 6.90259ZM189.769 4.85113L189.492 3.89026C198.415 1.31791 207.851 1.09022 216.888 3.22916L216.657 4.20227L216.427 5.17538C207.725 3.11566 198.639 3.33493 190.046 5.812L189.769 4.85113ZM158.202 6.65L158.439 5.67859C167.251 7.83228 176.473 7.6434 185.189 5.1307L185.466 6.09157L185.743 7.05244C176.692 9.66178 167.115 9.85793 157.964 7.6214L158.202 6.65ZM122.116 4.39084L121.863 3.42336C130.536 1.15585 139.636 1.08292 148.344 3.21116L148.106 4.18257L147.869 5.15398C139.484 3.10456 130.72 3.17479 122.369 5.35831L122.116 4.39084ZM87.0463 6.31104L87.3078 5.34583C96.062 7.71745 105.284 7.75814 114.059 5.46387L114.312 6.43135L114.565 7.39883C105.453 9.78134 95.8757 9.73908 86.7848 7.27625L87.0463 6.31104ZM53.2832 5.03004L53.0095 4.06824C62.4481 1.38171 72.4405 1.31808 81.9126 3.8842L81.6511 4.84941L81.3896 5.81461C72.2683 3.34354 62.6461 3.40481 53.557 5.99183L53.2832 5.03004ZM21.8903 6.39925L22.1406 5.43107C31.0911 7.7444 40.4966 7.62977 49.3881 5.09898L49.6619 6.06078L49.9356 7.02258C40.7021 9.6507 30.9349 9.76975 21.6401 7.36744L21.8903 6.39925Z" fill="#C9F87C"/>
</svg>
